# xmcd CD database file
#
# Track frame offsets:
#	150
#	14913
#	31416
#	42342
#	58205
#	73136
#	88279
#	101480
#	113717
#	131052
#	143120
#	159443
#	177977
#	189158
#	203914
#	219067
#
# Disc length: 3168 seconds
#
# Revision: 0
# Processed by: cddbd v1.5.2PL0 Copyright (c) Steve Scherf et al.
# Submitted via: CDex 1.51
#
DISCID=ea0c5e10
DTITLE=青山 - 青山精选1
DYEAR=2006
DGENRE=Blues
TTITLE0=难忘初恋的情人
TTITLE1=酒醒梦已残
TTITLE2=泪的小花
TTITLE3=泪的小雨
TTITLE4=心声泪痕
TTITLE5=昨夜梦醒时
TTITLE6=水长流
TTITLE7=蓝色的忧郁
TTITLE8=月儿象柠檬
TTITLE9=不要抛弃我
TTITLE10=谁能禁止我的爱
TTITLE11=负心的人
TTITLE12=爱你一万倍
TTITLE13=花儿象人人象花
TTITLE14=今夜台北没有你
TTITLE15=可爱的马
EXTD=YEAR: 2006
EXTT0=
EXTT1=
EXTT2=
EXTT3=
EXTT4=
EXTT5=
EXTT6=
EXTT7=
EXTT8=
EXTT9=
EXTT10=
EXTT11=
EXTT12=
EXTT13=
EXTT14=
EXTT15=
PLAYORDER=
